# xmcd
#
# Track frame offsets: 
#        150
#        10895
#        24633
#        47786
#        73472
#        86703
#        97064
#        107250
#        131715
#        150055
#        167906
#        185531
#        201148
#        222894
#
# Disc length: 3019 seconds
#
# Revision: 0
# Processed by: cddbd v1.5.2PL0 Copyright (c) Steve Scherf et al.
# Submitted via: ExactAudioCopy v1.0b3
#
DISCID=bf0bc90e
DTITLE=Tony "Little Sun" Glover - Blues Harp: An Instruction Method fo
DTITLE=r Playing the Blues Harmonica
DYEAR=1965
DGENRE=Blues
TTITLE0=Tone Layout
TTITLE1=Single Note Exercises
TTITLE2=1st and 2nd Position - Explanation and Examples
TTITLE3=Cross Harp
TTITLE4=Simple Rhythm Exercise
TTITLE5=More Complex Rhythm Exercise
TTITLE6=12-Bar Rhythm Exercise
TTITLE7=Varying Rhythms, Tonal Effects
TTITLE8=Bending Notes
TTITLE9=Transitional Bends, 10-Bar Exercise
TTITLE10=3rd Position - Explanation and Examples
TTITLE11=4th Position - Explanation and Examples
TTITLE12=Combined Effects - Two Examples
TTITLE13=Data
EXTD=
EXTT0=
EXTT1=
EXTT2=
EXTT3=
EXTT4=
EXTT5=
EXTT6=
EXTT7=
EXTT8=
EXTT9=
EXTT10=
EXTT11=
EXTT12=
EXTT13=
PLAYORDER=
